<?xml version="1.0" standalone="no"?>
<!DOCTYPE svg PUBLIC "-//W3C//DTD SVG 20010904//EN"
 "http://www.w3.org/TR/2001/REC-SVG-20010904/DTD/svg10.dtd">
<svg version="1.0" xmlns="http://www.w3.org/2000/svg"
 width="700.000000pt" height="700.000000pt" viewBox="0 0 700.000000 700.000000"
 preserveAspectRatio="xMidYMid meet">
<metadata>
Created by potrace 1.11, written by Peter Selinger 2001-2013
</metadata>
<g transform="translate(0.000000,700.000000) scale(0.100000,-0.100000)"
fill="#000000" stroke="none">
<path d="M1020 6956 c-52 -18 -112 -41 -132 -49 -21 -9 -38 -13 -38 -9 0 4 -4
3 -8 -3 -4 -5 -51 -32 -105 -59 -155 -76 -240 -137 -352 -250 -127 -129 -206
-263 -246 -416 -26 -99 -30 -134 -29 -265 1 -158 5 -180 43 -220 29 -31 137
-192 137 -204 0 -6 4 -11 8 -11 8 0 79 -144 88 -178 2 -9 13 -51 24 -92 20
-73 28 -214 16 -270 -16 -72 -50 -170 -59 -170 -6 0 -8 -3 -4 -6 7 -8 -28 -76
-85 -165 -92 -144 -173 -274 -175 -284 -1 -5 -11 -35 -22 -65 -24 -66 -26 -92
-7 -128 26 -51 95 -271 111 -353 30 -161 9 -338 -62 -509 -3 -8 -7 -19 -8 -25
-2 -5 -8 -30 -14 -53 -7 -24 -9 -57 -6 -73 4 -16 6 -31 5 -34 -1 -3 5 -17 14
-30 8 -13 17 -35 20 -50 3 -14 12 -52 22 -83 24 -83 25 -352 1 -352 -5 0 -6
-4 -2 -9 3 -5 1 -12 -5 -16 -6 -4 -8 -11 -5 -16 4 -5 1 -9 -6 -9 -7 0 -9 -3
-6 -7 4 -3 0 -15 -10 -25 -9 -10 -13 -18 -10 -18 4 0 -6 -21 -21 -47 -39 -67
-70 -136 -74 -164 -2 -13 -6 -29 -10 -34 -7 -12 -4 -132 5 -184 14 -74 92
-167 176 -211 150 -76 382 -55 600 54 65 33 69 34 87 18 24 -22 157 -82 198
-89 129 -23 215 -11 344 47 34 16 63 29 65 28 1 -1 28 15 59 36 31 20 60 36
64 36 4 0 39 23 78 52 78 57 211 124 266 134 19 3 46 8 60 11 42 7 164 11 174
5 6 -3 19 -7 30 -8 21 -2 42 -6 99 -19 54 -11 261 -104 277 -124 3 -3 30 -22
60 -42 30 -20 87 -63 125 -96 39 -32 79 -62 89 -66 13 -5 54 9 130 44 61 28
122 56 136 61 14 6 34 14 45 19 60 26 208 61 262 62 35 1 63 5 63 9 0 4 33 5
73 2 39 -3 95 -7 122 -9 28 -2 131 -13 230 -24 99 -11 223 -23 276 -26 86 -4
102 -2 160 21 35 14 72 26 82 27 9 1 17 5 17 9 0 4 20 13 45 19 25 6 45 14 45
18 0 4 16 13 36 20 49 18 198 104 264 154 55 41 181 163 210 203 75 104 138
252 157 372 9 55 9 301 0 386 -6 57 -11 83 -42 236 -9 41 -17 86 -19 100 -2
14 -6 32 -10 40 -5 14 -14 53 -15 75 -1 6 -15 26 -31 45 -16 19 -30 38 -30 41
0 3 -8 15 -17 26 -10 11 -36 42 -58 68 -151 182 -328 309 -553 399 -49 20 -97
37 -108 39 -10 1 -25 6 -31 10 -7 5 -13 6 -13 2 0 -3 -8 -1 -18 4 -22 12 -70
23 -96 22 -16 0 -13 6 15 35 50 51 98 59 239 39 75 -11 172 -6 229 12 42 13
69 31 120 82 80 80 86 87 136 181 l39 75 2 205 c1 113 5 228 9 255 4 28 9 59
10 70 1 11 3 20 4 20 3 0 5 12 14 60 3 17 8 39 11 51 6 27 61 191 77 229 7 17
13 32 14 35 1 3 9 23 19 45 60 139 111 288 121 355 2 19 7 48 10 63 6 29 -13
97 -26 97 -4 0 -10 9 -14 19 -8 27 -100 116 -165 161 -30 20 -92 56 -137 79
-80 40 -418 171 -441 171 -7 0 -12 4 -12 8 0 5 -6 9 -12 9 -13 0 -40 11 -151
61 -33 15 -68 40 -83 59 -44 58 -144 148 -144 130 0 -3 -18 2 -39 12 -48 21
-186 20 -207 -2 -4 -4 -17 -7 -29 -7 -20 0 -192 -83 -295 -142 -42 -24 -51
-26 -110 -19 -67 8 -302 7 -355 -2 -16 -3 -46 -7 -65 -10 -19 -3 -69 -15 -110
-28 -41 -12 -77 -23 -80 -24 -3 -1 -18 -7 -33 -13 -16 -7 -33 -12 -38 -12 -5
0 -9 -5 -9 -12 0 -6 -3 -9 -6 -5 -3 3 -29 -8 -57 -25 -147 -86 -267 -194 -367
-331 l-58 -77 -16 25 c-9 14 -42 50 -73 81 -64 64 -150 109 -239 125 -121 21
-149 31 -213 74 -88 58 -285 254 -349 346 -16 24 -80 95 -117 131 -19 19 -58
39 -73 38 -4 -1 -50 -16 -102 -34z m3065 -293 l18 -28 -29 25 c-16 14 -31 26
-33 28 -2 1 3 2 11 2 9 0 24 -12 33 -27z m450 -823 c3 -6 -1 -7 -9 -4 -18 7
-21 14 -7 14 6 0 13 -4 16 -10z m-3038 -1042 c-3 -8 -6 -5 -6 6 -1 11 2 17 5
13 3 -3 4 -12 1 -19z m1417 -144 c3 -8 2 -12 -4 -9 -6 3 -10 10 -10 16 0 14 7
11 14 -7z m863 -250 c-3 -3 -12 -4 -19 -1 -8 3 -5 6 6 6 11 1 17 -2 13 -5z"/>
</g>
</svg>
